<svg xmlns="http://www.w3.org/2000/svg" width="500" height="500.006" viewBox="0 0 500 500.006">
  <path id="빼기_24" data-name="빼기 24" d="M338.021,518.006h-.042a251.053,251.053,0,0,0-73.2-174.664A247.555,247.555,0,0,0,88,269.646,247.809,247.809,0,0,0,264.78,195.93,250.807,250.807,0,0,0,338,18a250.827,250.827,0,0,0,73.24,177.949A247.532,247.532,0,0,0,588,269.646l-.135.042a247.381,247.381,0,0,0-176.641,73.663A250.983,250.983,0,0,0,338.021,518.006Z" transform="translate(-88 -18)" fill="#baa5c8"/>
</svg>
