<?xml version="1.0" standalone="no"?>
<svg xmlns="http://www.w3.org/2000/svg" width="300" height="300"><defs><clipPath id="clip-path-dot-color"><rect x="2" y="74" width="8" height="8" transform="rotate(0,6,78)"/><rect x="2" y="82" width="8" height="8" transform="rotate(0,6,86)"/><rect x="2" y="106" width="8" height="8" transform="rotate(0,6,110)"/><rect x="2" y="130" width="8" height="8" transform="rotate(0,6,134)"/><rect x="2" y="154" width="8" height="8" transform="rotate(0,6,158)"/><rect x="2" y="162" width="8" height="8" transform="rotate(0,6,166)"/><rect x="2" y="186" width="8" height="8" transform="rotate(0,6,190)"/><rect x="2" y="226" width="8" height="8" transform="rotate(0,6,230)"/><rect x="10" y="66" width="8" height="8" transform="rotate(0,14,70)"/><rect x="10" y="82" width="8" height="8" transform="rotate(0,14,86)"/><rect x="10" y="90" width="8" height="8" transform="rotate(0,14,94)"/><rect x="10" y="98" width="8" height="8" transform="rotate(0,14,102)"/><rect x="10" y="122" width="8" height="8" transform="rotate(0,14,126)"/><rect x="10" y="130" width="8" height="8" transform="rotate(0,14,134)"/><rect x="10" y="146" width="8" height="8" transform="rotate(0,14,150)"/><rect x="10" y="170" width="8" height="8" transform="rotate(0,14,174)"/><rect x="10" y="178" width="8" height="8" transform="rotate(0,14,182)"/><rect x="10" y="186" width="8" height="8" transform="rotate(0,14,190)"/><rect x="10" y="202" width="8" height="8" transform="rotate(0,14,206)"/><rect x="10" y="210" width="8" height="8" transform="rotate(0,14,214)"/><rect x="10" y="226" width="8" height="8" transform="rotate(0,14,230)"/><rect x="18" y="66" width="8" height="8" transform="rotate(0,22,70)"/><rect x="18" y="74" width="8" height="8" transform="rotate(0,22,78)"/><rect x="18" y="82" width="8" height="8" transform="rotate(0,22,86)"/><rect x="18" y="90" width="8" height="8" transform="rotate(0,22,94)"/><rect x="18" y="106" width="8" height="8" transform="rotate(0,22,110)"/><rect x="18" y="178" width="8" height="8" transform="rotate(0,22,182)"/><rect x="18" y="202" width="8" height="8" transform="rotate(0,22,206)"/><rect x="26" y="74" width="8" height="8" transform="rotate(0,30,78)"/><rect x="26" y="82" width="8" height="8" transform="rotate(0,30,86)"/><rect x="26" y="90" width="8" height="8" transform="rotate(0,30,94)"/><rect x="26" y="98" width="8" height="8" transform="rotate(0,30,102)"/><rect x="26" y="106" width="8" height="8" transform="rotate(0,30,110)"/><rect x="26" y="122" width="8" height="8" transform="rotate(0,30,126)"/><rect x="26" y="154" width="8" height="8" transform="rotate(0,30,158)"/><rect x="26" y="202" width="8" height="8" transform="rotate(0,30,206)"/><rect x="26" y="210" width="8" height="8" transform="rotate(0,30,214)"/><rect x="26" y="218" width="8" height="8" transform="rotate(0,30,222)"/><rect x="34" y="74" width="8" height="8" transform="rotate(0,38,78)"/><rect x="34" y="98" width="8" height="8" transform="rotate(0,38,102)"/><rect x="34" y="106" width="8" height="8" transform="rotate(0,38,110)"/><rect x="34" y="114" width="8" height="8" transform="rotate(0,38,118)"/><rect x="34" y="138" width="8" height="8" transform="rotate(0,38,142)"/><rect x="34" y="170" width="8" height="8" transform="rotate(0,38,174)"/><rect x="34" y="178" width="8" height="8" transform="rotate(0,38,182)"/><rect x="34" y="194" width="8" height="8" transform="rotate(0,38,198)"/><rect x="34" y="210" width="8" height="8" transform="rotate(0,38,214)"/><rect x="34" y="218" width="8" height="8" transform="rotate(0,38,222)"/><rect x="42" y="74" width="8" height="8" transform="rotate(0,46,78)"/><rect x="42" y="90" width="8" height="8" transform="rotate(0,46,94)"/><rect x="42" y="98" width="8" height="8" transform="rotate(0,46,102)"/><rect x="42" y="122" width="8" height="8" transform="rotate(0,46,126)"/><rect x="42" y="130" width="8" height="8" transform="rotate(0,46,134)"/><rect x="42" y="138" width="8" height="8" transform="rotate(0,46,142)"/><rect x="42" y="146" width="8" height="8" transform="rotate(0,46,150)"/><rect x="42" y="170" width="8" height="8" transform="rotate(0,46,174)"/><rect x="42" y="194" width="8" height="8" transform="rotate(0,46,198)"/><rect x="42" y="202" width="8" height="8" transform="rotate(0,46,206)"/><rect x="50" y="66" width="8" height="8" transform="rotate(0,54,70)"/><rect x="50" y="82" width="8" height="8" transform="rotate(0,54,86)"/><rect x="50" y="98" width="8" height="8" transform="rotate(0,54,102)"/><rect x="50" y="114" width="8" height="8" transform="rotate(0,54,118)"/><rect x="50" y="130" width="8" height="8" transform="rotate(0,54,134)"/><rect x="50" y="146" width="8" height="8" transform="rotate(0,54,150)"/><rect x="50" y="162" width="8" height="8" transform="rotate(0,54,166)"/><rect x="50" y="178" width="8" height="8" transform="rotate(0,54,182)"/><rect x="50" y="194" width="8" height="8" transform="rotate(0,54,198)"/><rect x="50" y="210" width="8" height="8" transform="rotate(0,54,214)"/><rect x="50" y="226" width="8" height="8" transform="rotate(0,54,230)"/><rect x="58" y="74" width="8" height="8" transform="rotate(0,62,78)"/><rect x="58" y="82" width="8" height="8" transform="rotate(0,62,86)"/><rect x="58" y="90" width="8" height="8" transform="rotate(0,62,94)"/><rect x="58" y="106" width="8" height="8" transform="rotate(0,62,110)"/><rect x="58" y="114" width="8" height="8" transform="rotate(0,62,118)"/><rect x="58" y="122" width="8" height="8" transform="rotate(0,62,126)"/><rect x="58" y="130" width="8" height="8" transform="rotate(0,62,134)"/><rect x="58" y="146" width="8" height="8" transform="rotate(0,62,150)"/><rect x="58" y="154" width="8" height="8" transform="rotate(0,62,158)"/><rect x="58" y="162" width="8" height="8" transform="rotate(0,62,166)"/><rect x="58" y="178" width="8" height="8" transform="rotate(0,62,182)"/><rect x="58" y="186" width="8" height="8" transform="rotate(0,62,190)"/><rect x="58" y="210" width="8" height="8" transform="rotate(0,62,214)"/><rect x="58" y="218" width="8" height="8" transform="rotate(0,62,222)"/><rect x="58" y="226" width="8" height="8" transform="rotate(0,62,230)"/><rect x="66" y="10" width="8" height="8" transform="rotate(0,70,14)"/><rect x="66" y="18" width="8" height="8" transform="rotate(0,70,22)"/><rect x="66" y="26" width="8" height="8" transform="rotate(0,70,30)"/><rect x="66" y="42" width="8" height="8" transform="rotate(0,70,46)"/><rect x="66" y="50" width="8" height="8" transform="rotate(0,70,54)"/><rect x="66" y="74" width="8" height="8" transform="rotate(0,70,78)"/><rect x="66" y="82" width="8" height="8" transform="rotate(0,70,86)"/><rect x="66" y="106" width="8" height="8" transform="rotate(0,70,110)"/><rect x="66" y="114" width="8" height="8" transform="rotate(0,70,118)"/><rect x="66" y="122" width="8" height="8" transform="rotate(0,70,126)"/><rect x="66" y="162" width="8" height="8" transform="rotate(0,70,166)"/><rect x="66" y="170" width="8" height="8" transform="rotate(0,70,174)"/><rect x="66" y="210" width="8" height="8" transform="rotate(0,70,214)"/><rect x="66" y="218" width="8" height="8" transform="rotate(0,70,222)"/><rect x="66" y="274" width="8" height="8" transform="rotate(0,70,278)"/><rect x="66" y="282" width="8" height="8" transform="rotate(0,70,286)"/><rect x="74" y="10" width="8" height="8" transform="rotate(0,78,14)"/><rect x="74" y="18" width="8" height="8" transform="rotate(0,78,22)"/><rect x="74" y="34" width="8" height="8" transform="rotate(0,78,38)"/><rect x="74" y="58" width="8" height="8" transform="rotate(0,78,62)"/><rect x="74" y="66" width="8" height="8" transform="rotate(0,78,70)"/><rect x="74" y="98" width="8" height="8" transform="rotate(0,78,102)"/><rect x="74" y="114" width="8" height="8" transform="rotate(0,78,118)"/><rect x="74" y="138" width="8" height="8" transform="rotate(0,78,142)"/><rect x="74" y="154" width="8" height="8" transform="rotate(0,78,158)"/><rect x="74" y="162" width="8" height="8" transform="rotate(0,78,166)"/><rect x="74" y="170" width="8" height="8" transform="rotate(0,78,174)"/><rect x="74" y="186" width="8" height="8" transform="rotate(0,78,190)"/><rect x="74" y="194" width="8" height="8" transform="rotate(0,78,198)"/><rect x="74" y="202" width="8" height="8" transform="rotate(0,78,206)"/><rect x="74" y="210" width="8" height="8" transform="rotate(0,78,214)"/><rect x="74" y="226" width="8" height="8" transform="rotate(0,78,230)"/><rect x="74" y="250" width="8" height="8" transform="rotate(0,78,254)"/><rect x="74" y="274" width="8" height="8" transform="rotate(0,78,278)"/><rect x="82" y="2" width="8" height="8" transform="rotate(0,86,6)"/><rect x="82" y="42" width="8" height="8" transform="rotate(0,86,46)"/><rect x="82" y="50" width="8" height="8" transform="rotate(0,86,54)"/><rect x="82" y="74" width="8" height="8" transform="rotate(0,86,78)"/><rect x="82" y="82" width="8" height="8" transform="rotate(0,86,86)"/><rect x="82" y="106" width="8" height="8" transform="rotate(0,86,110)"/><rect x="82" y="114" width="8" height="8" transform="rotate(0,86,118)"/><rect x="82" y="130" width="8" height="8" transform="rotate(0,86,134)"/><rect x="82" y="186" width="8" height="8" transform="rotate(0,86,190)"/><rect x="82" y="194" width="8" height="8" transform="rotate(0,86,198)"/><rect x="82" y="202" width="8" height="8" transform="rotate(0,86,206)"/><rect x="82" y="226" width="8" height="8" transform="rotate(0,86,230)"/><rect x="82" y="234" width="8" height="8" transform="rotate(0,86,238)"/><rect x="82" y="274" width="8" height="8" transform="rotate(0,86,278)"/><rect x="90" y="2" width="8" height="8" transform="rotate(0,94,6)"/><rect x="90" y="18" width="8" height="8" transform="rotate(0,94,22)"/><rect x="90" y="26" width="8" height="8" transform="rotate(0,94,30)"/><rect x="90" y="58" width="8" height="8" transform="rotate(0,94,62)"/><rect x="90" y="74" width="8" height="8" transform="rotate(0,94,78)"/><rect x="90" y="82" width="8" height="8" transform="rotate(0,94,86)"/><rect x="90" y="90" width="8" height="8" transform="rotate(0,94,94)"/><rect x="90" y="98" width="8" height="8" transform="rotate(0,94,102)"/><rect x="90" y="130" width="8" height="8" transform="rotate(0,94,134)"/><rect x="90" y="154" width="8" height="8" transform="rotate(0,94,158)"/><rect x="90" y="162" width="8" height="8" transform="rotate(0,94,166)"/><rect x="90" y="178" width="8" height="8" transform="rotate(0,94,182)"/><rect x="90" y="186" width="8" height="8" transform="rotate(0,94,190)"/><rect x="90" y="194" width="8" height="8" transform="rotate(0,94,198)"/><rect x="90" y="202" width="8" height="8" transform="rotate(0,94,206)"/><rect x="90" y="210" width="8" height="8" transform="rotate(0,94,214)"/><rect x="90" y="226" width="8" height="8" transform="rotate(0,94,230)"/><rect x="90" y="250" width="8" height="8" transform="rotate(0,94,254)"/><rect x="90" y="266" width="8" height="8" transform="rotate(0,94,270)"/><rect x="90" y="274" width="8" height="8" transform="rotate(0,94,278)"/><rect x="90" y="282" width="8" height="8" transform="rotate(0,94,286)"/><rect x="98" y="2" width="8" height="8" transform="rotate(0,102,6)"/><rect x="98" y="10" width="8" height="8" transform="rotate(0,102,14)"/><rect x="98" y="18" width="8" height="8" transform="rotate(0,102,22)"/><rect x="98" y="50" width="8" height="8" transform="rotate(0,102,54)"/><rect x="98" y="66" width="8" height="8" transform="rotate(0,102,70)"/><rect x="98" y="74" width="8" height="8" transform="rotate(0,102,78)"/><rect x="98" y="82" width="8" height="8" transform="rotate(0,102,86)"/><rect x="98" y="106" width="8" height="8" transform="rotate(0,102,110)"/><rect x="98" y="130" width="8" height="8" transform="rotate(0,102,134)"/><rect x="98" y="162" width="8" height="8" transform="rotate(0,102,166)"/><rect x="98" y="178" width="8" height="8" transform="rotate(0,102,182)"/><rect x="98" y="186" width="8" height="8" transform="rotate(0,102,190)"/><rect x="98" y="194" width="8" height="8" transform="rotate(0,102,198)"/><rect x="98" y="202" width="8" height="8" transform="rotate(0,102,206)"/><rect x="98" y="210" width="8" height="8" transform="rotate(0,102,214)"/><rect x="98" y="218" width="8" height="8" transform="rotate(0,102,222)"/><rect x="98" y="226" width="8" height="8" transform="rotate(0,102,230)"/><rect x="98" y="234" width="8" height="8" transform="rotate(0,102,238)"/><rect x="98" y="242" width="8" height="8" transform="rotate(0,102,246)"/><rect x="98" y="258" width="8" height="8" transform="rotate(0,102,262)"/><rect x="98" y="266" width="8" height="8" transform="rotate(0,102,270)"/><rect x="98" y="274" width="8" height="8" transform="rotate(0,102,278)"/><rect x="106" y="2" width="8" height="8" transform="rotate(0,110,6)"/><rect x="106" y="10" width="8" height="8" transform="rotate(0,110,14)"/><rect x="106" y="26" width="8" height="8" transform="rotate(0,110,30)"/><rect x="106" y="34" width="8" height="8" transform="rotate(0,110,38)"/><rect x="106" y="42" width="8" height="8" transform="rotate(0,110,46)"/><rect x="106" y="74" width="8" height="8" transform="rotate(0,110,78)"/><rect x="106" y="90" width="8" height="8" transform="rotate(0,110,94)"/><rect x="106" y="114" width="8" height="8" transform="rotate(0,110,118)"/><rect x="106" y="122" width="8" height="8" transform="rotate(0,110,126)"/><rect x="106" y="146" width="8" height="8" transform="rotate(0,110,150)"/><rect x="106" y="170" width="8" height="8" transform="rotate(0,110,174)"/><rect x="106" y="178" width="8" height="8" transform="rotate(0,110,182)"/><rect x="106" y="194" width="8" height="8" transform="rotate(0,110,198)"/><rect x="106" y="210" width="8" height="8" transform="rotate(0,110,214)"/><rect x="106" y="218" width="8" height="8" transform="rotate(0,110,222)"/><rect x="106" y="226" width="8" height="8" transform="rotate(0,110,230)"/><rect x="106" y="242" width="8" height="8" transform="rotate(0,110,246)"/><rect x="106" y="250" width="8" height="8" transform="rotate(0,110,254)"/><rect x="106" y="258" width="8" height="8" transform="rotate(0,110,262)"/><rect x="106" y="274" width="8" height="8" transform="rotate(0,110,278)"/><rect x="106" y="290" width="8" height="8" transform="rotate(0,110,294)"/><rect x="114" y="10" width="8" height="8" transform="rotate(0,118,14)"/><rect x="114" y="18" width="8" height="8" transform="rotate(0,118,22)"/><rect x="114" y="26" width="8" height="8" transform="rotate(0,118,30)"/><rect x="114" y="34" width="8" height="8" transform="rotate(0,118,38)"/><rect x="114" y="42" width="8" height="8" transform="rotate(0,118,46)"/><rect x="114" y="50" width="8" height="8" transform="rotate(0,118,54)"/><rect x="114" y="58" width="8" height="8" transform="rotate(0,118,62)"/><rect x="114" y="74" width="8" height="8" transform="rotate(0,118,78)"/><rect x="114" y="106" width="8" height="8" transform="rotate(0,118,110)"/><rect x="114" y="114" width="8" height="8" transform="rotate(0,118,118)"/><rect x="114" y="122" width="8" height="8" transform="rotate(0,118,126)"/><rect x="114" y="130" width="8" height="8" transform="rotate(0,118,134)"/><rect x="114" y="138" width="8" height="8" transform="rotate(0,118,142)"/><rect x="114" y="146" width="8" height="8" transform="rotate(0,118,150)"/><rect x="114" y="162" width="8" height="8" transform="rotate(0,118,166)"/><rect x="114" y="170" width="8" height="8" transform="rotate(0,118,174)"/><rect x="114" y="178" width="8" height="8" transform="rotate(0,118,182)"/><rect x="114" y="194" width="8" height="8" transform="rotate(0,118,198)"/><rect x="114" y="226" width="8" height="8" transform="rotate(0,118,230)"/><rect x="114" y="242" width="8" height="8" transform="rotate(0,118,246)"/><rect x="114" y="258" width="8" height="8" transform="rotate(0,118,262)"/><rect x="114" y="274" width="8" height="8" transform="rotate(0,118,278)"/><rect x="122" y="2" width="8" height="8" transform="rotate(0,126,6)"/><rect x="122" y="26" width="8" height="8" transform="rotate(0,126,30)"/><rect x="122" y="34" width="8" height="8" transform="rotate(0,126,38)"/><rect x="122" y="42" width="8" height="8" transform="rotate(0,126,46)"/><rect x="122" y="58" width="8" height="8" transform="rotate(0,126,62)"/><rect x="122" y="82" width="8" height="8" transform="rotate(0,126,86)"/><rect x="122" y="90" width="8" height="8" transform="rotate(0,126,94)"/><rect x="122" y="98" width="8" height="8" transform="rotate(0,126,102)"/><rect x="122" y="106" width="8" height="8" transform="rotate(0,126,110)"/><rect x="122" y="114" width="8" height="8" transform="rotate(0,126,118)"/><rect x="122" y="130" width="8" height="8" transform="rotate(0,126,134)"/><rect x="122" y="138" width="8" height="8" transform="rotate(0,126,142)"/><rect x="122" y="154" width="8" height="8" transform="rotate(0,126,158)"/><rect x="122" y="162" width="8" height="8" transform="rotate(0,126,166)"/><rect x="122" y="170" width="8" height="8" transform="rotate(0,126,174)"/><rect x="122" y="178" width="8" height="8" transform="rotate(0,126,182)"/><rect x="122" y="194" width="8" height="8" transform="rotate(0,126,198)"/><rect x="122" y="218" width="8" height="8" transform="rotate(0,126,222)"/><rect x="122" y="226" width="8" height="8" transform="rotate(0,126,230)"/><rect x="122" y="234" width="8" height="8" transform="rotate(0,126,238)"/><rect x="122" y="242" width="8" height="8" transform="rotate(0,126,246)"/><rect x="122" y="250" width="8" height="8" transform="rotate(0,126,254)"/><rect x="122" y="258" width="8" height="8" transform="rotate(0,126,262)"/><rect x="122" y="282" width="8" height="8" transform="rotate(0,126,286)"/><rect x="122" y="290" width="8" height="8" transform="rotate(0,126,294)"/><rect x="130" y="2" width="8" height="8" transform="rotate(0,134,6)"/><rect x="130" y="10" width="8" height="8" transform="rotate(0,134,14)"/><rect x="130" y="18" width="8" height="8" transform="rotate(0,134,22)"/><rect x="130" y="26" width="8" height="8" transform="rotate(0,134,30)"/><rect x="130" y="42" width="8" height="8" transform="rotate(0,134,46)"/><rect x="130" y="50" width="8" height="8" transform="rotate(0,134,54)"/><rect x="130" y="74" width="8" height="8" transform="rotate(0,134,78)"/><rect x="130" y="130" width="8" height="8" transform="rotate(0,134,134)"/><rect x="130" y="154" width="8" height="8" transform="rotate(0,134,158)"/><rect x="130" y="194" width="8" height="8" transform="rotate(0,134,198)"/><rect x="130" y="202" width="8" height="8" transform="rotate(0,134,206)"/><rect x="130" y="210" width="8" height="8" transform="rotate(0,134,214)"/><rect x="130" y="226" width="8" height="8" transform="rotate(0,134,230)"/><rect x="130" y="266" width="8" height="8" transform="rotate(0,134,270)"/><rect x="130" y="274" width="8" height="8" transform="rotate(0,134,278)"/><rect x="130" y="282" width="8" height="8" transform="rotate(0,134,286)"/><rect x="138" y="2" width="8" height="8" transform="rotate(0,142,6)"/><rect x="138" y="10" width="8" height="8" transform="rotate(0,142,14)"/><rect x="138" y="26" width="8" height="8" transform="rotate(0,142,30)"/><rect x="138" y="34" width="8" height="8" transform="rotate(0,142,38)"/><rect x="138" y="58" width="8" height="8" transform="rotate(0,142,62)"/><rect x="138" y="82" width="8" height="8" transform="rotate(0,142,86)"/><rect x="138" y="98" width="8" height="8" transform="rotate(0,142,102)"/><rect x="138" y="106" width="8" height="8" transform="rotate(0,142,110)"/><rect x="138" y="114" width="8" height="8" transform="rotate(0,142,118)"/><rect x="138" y="122" width="8" height="8" transform="rotate(0,142,126)"/><rect x="138" y="130" width="8" height="8" transform="rotate(0,142,134)"/><rect x="138" y="146" width="8" height="8" transform="rotate(0,142,150)"/><rect x="138" y="154" width="8" height="8" transform="rotate(0,142,158)"/><rect x="138" y="178" width="8" height="8" transform="rotate(0,142,182)"/><rect x="138" y="186" width="8" height="8" transform="rotate(0,142,190)"/><rect x="138" y="194" width="8" height="8" transform="rotate(0,142,198)"/><rect x="138" y="218" width="8" height="8" transform="rotate(0,142,222)"/><rect x="138" y="234" width="8" height="8" transform="rotate(0,142,238)"/><rect x="138" y="242" width="8" height="8" transform="rotate(0,142,246)"/><rect x="138" y="290" width="8" height="8" transform="rotate(0,142,294)"/><rect x="146" y="2" width="8" height="8" transform="rotate(0,150,6)"/><rect x="146" y="26" width="8" height="8" transform="rotate(0,150,30)"/><rect x="146" y="42" width="8" height="8" transform="rotate(0,150,46)"/><rect x="146" y="50" width="8" height="8" transform="rotate(0,150,54)"/><rect x="146" y="74" width="8" height="8" transform="rotate(0,150,78)"/><rect x="146" y="98" width="8" height="8" transform="rotate(0,150,102)"/><rect x="146" y="106" width="8" height="8" transform="rotate(0,150,110)"/><rect x="146" y="114" width="8" height="8" transform="rotate(0,150,118)"/><rect x="146" y="138" width="8" height="8" transform="rotate(0,150,142)"/><rect x="146" y="146" width="8" height="8" transform="rotate(0,150,150)"/><rect x="146" y="170" width="8" height="8" transform="rotate(0,150,174)"/><rect x="146" y="218" width="8" height="8" transform="rotate(0,150,222)"/><rect x="146" y="234" width="8" height="8" transform="rotate(0,150,238)"/><rect x="146" y="250" width="8" height="8" transform="rotate(0,150,254)"/><rect x="146" y="258" width="8" height="8" transform="rotate(0,150,262)"/><rect x="146" y="266" width="8" height="8" transform="rotate(0,150,270)"/><rect x="146" y="282" width="8" height="8" transform="rotate(0,150,286)"/><rect x="146" y="290" width="8" height="8" transform="rotate(0,150,294)"/><rect x="154" y="66" width="8" height="8" transform="rotate(0,158,70)"/><rect x="154" y="82" width="8" height="8" transform="rotate(0,158,86)"/><rect x="154" y="114" width="8" height="8" transform="rotate(0,158,118)"/><rect x="154" y="122" width="8" height="8" transform="rotate(0,158,126)"/><rect x="154" y="146" width="8" height="8" transform="rotate(0,158,150)"/><rect x="154" y="154" width="8" height="8" transform="rotate(0,158,158)"/><rect x="154" y="178" width="8" height="8" transform="rotate(0,158,182)"/><rect x="154" y="186" width="8" height="8" transform="rotate(0,158,190)"/><rect x="154" y="234" width="8" height="8" transform="rotate(0,158,238)"/><rect x="154" y="242" width="8" height="8" transform="rotate(0,158,246)"/><rect x="154" y="250" width="8" height="8" transform="rotate(0,158,254)"/><rect x="154" y="258" width="8" height="8" transform="rotate(0,158,262)"/><rect x="154" y="282" width="8" height="8" transform="rotate(0,158,286)"/><rect x="154" y="290" width="8" height="8" transform="rotate(0,158,294)"/><rect x="162" y="2" width="8" height="8" transform="rotate(0,166,6)"/><rect x="162" y="18" width="8" height="8" transform="rotate(0,166,22)"/><rect x="162" y="34" width="8" height="8" transform="rotate(0,166,38)"/><rect x="162" y="42" width="8" height="8" transform="rotate(0,166,46)"/><rect x="162" y="50" width="8" height="8" transform="rotate(0,166,54)"/><rect x="162" y="74" width="8" height="8" transform="rotate(0,166,78)"/><rect x="162" y="82" width="8" height="8" transform="rotate(0,166,86)"/><rect x="162" y="90" width="8" height="8" transform="rotate(0,166,94)"/><rect x="162" y="106" width="8" height="8" transform="rotate(0,166,110)"/><rect x="162" y="130" width="8" height="8" transform="rotate(0,166,134)"/><rect x="162" y="138" width="8" height="8" transform="rotate(0,166,142)"/><rect x="162" y="146" width="8" height="8" transform="rotate(0,166,150)"/><rect x="162" y="154" width="8" height="8" transform="rotate(0,166,158)"/><rect x="162" y="162" width="8" height="8" transform="rotate(0,166,166)"/><rect x="162" y="170" width="8" height="8" transform="rotate(0,166,174)"/><rect x="162" y="178" width="8" height="8" transform="rotate(0,166,182)"/><rect x="162" y="210" width="8" height="8" transform="rotate(0,166,214)"/><rect x="162" y="218" width="8" height="8" transform="rotate(0,166,222)"/><rect x="162" y="226" width="8" height="8" transform="rotate(0,166,230)"/><rect x="162" y="234" width="8" height="8" transform="rotate(0,166,238)"/><rect x="162" y="258" width="8" height="8" transform="rotate(0,166,262)"/><rect x="162" y="290" width="8" height="8" transform="rotate(0,166,294)"/><rect x="170" y="2" width="8" height="8" transform="rotate(0,174,6)"/><rect x="170" y="26" width="8" height="8" transform="rotate(0,174,30)"/><rect x="170" y="34" width="8" height="8" transform="rotate(0,174,38)"/><rect x="170" y="66" width="8" height="8" transform="rotate(0,174,70)"/><rect x="170" y="74" width="8" height="8" transform="rotate(0,174,78)"/><rect x="170" y="98" width="8" height="8" transform="rotate(0,174,102)"/><rect x="170" y="106" width="8" height="8" transform="rotate(0,174,110)"/><rect x="170" y="114" width="8" height="8" transform="rotate(0,174,118)"/><rect x="170" y="130" width="8" height="8" transform="rotate(0,174,134)"/><rect x="170" y="146" width="8" height="8" transform="rotate(0,174,150)"/><rect x="170" y="162" width="8" height="8" transform="rotate(0,174,166)"/><rect x="170" y="170" width="8" height="8" transform="rotate(0,174,174)"/><rect x="170" y="178" width="8" height="8" transform="rotate(0,174,182)"/><rect x="170" y="186" width="8" height="8" transform="rotate(0,174,190)"/><rect x="170" y="210" width="8" height="8" transform="rotate(0,174,214)"/><rect x="170" y="250" width="8" height="8" transform="rotate(0,174,254)"/><rect x="170" y="274" width="8" height="8" transform="rotate(0,174,278)"/><rect x="178" y="2" width="8" height="8" transform="rotate(0,182,6)"/><rect x="178" y="18" width="8" height="8" transform="rotate(0,182,22)"/><rect x="178" y="26" width="8" height="8" transform="rotate(0,182,30)"/><rect x="178" y="34" width="8" height="8" transform="rotate(0,182,38)"/><rect x="178" y="42" width="8" height="8" transform="rotate(0,182,46)"/><rect x="178" y="50" width="8" height="8" transform="rotate(0,182,54)"/><rect x="178" y="58" width="8" height="8" transform="rotate(0,182,62)"/><rect x="178" y="98" width="8" height="8" transform="rotate(0,182,102)"/><rect x="178" y="130" width="8" height="8" transform="rotate(0,182,134)"/><rect x="178" y="178" width="8" height="8" transform="rotate(0,182,182)"/><rect x="178" y="186" width="8" height="8" transform="rotate(0,182,190)"/><rect x="178" y="194" width="8" height="8" transform="rotate(0,182,198)"/><rect x="178" y="210" width="8" height="8" transform="rotate(0,182,214)"/><rect x="178" y="234" width="8" height="8" transform="rotate(0,182,238)"/><rect x="178" y="242" width="8" height="8" transform="rotate(0,182,246)"/><rect x="178" y="258" width="8" height="8" transform="rotate(0,182,262)"/><rect x="178" y="274" width="8" height="8" transform="rotate(0,182,278)"/><rect x="186" y="2" width="8" height="8" transform="rotate(0,190,6)"/><rect x="186" y="10" width="8" height="8" transform="rotate(0,190,14)"/><rect x="186" y="18" width="8" height="8" transform="rotate(0,190,22)"/><rect x="186" y="26" width="8" height="8" transform="rotate(0,190,30)"/><rect x="186" y="34" width="8" height="8" transform="rotate(0,190,38)"/><rect x="186" y="58" width="8" height="8" transform="rotate(0,190,62)"/><rect x="186" y="82" width="8" height="8" transform="rotate(0,190,86)"/><rect x="186" y="90" width="8" height="8" transform="rotate(0,190,94)"/><rect x="186" y="98" width="8" height="8" transform="rotate(0,190,102)"/><rect x="186" y="106" width="8" height="8" transform="rotate(0,190,110)"/><rect x="186" y="114" width="8" height="8" transform="rotate(0,190,118)"/><rect x="186" y="138" width="8" height="8" transform="rotate(0,190,142)"/><rect x="186" y="146" width="8" height="8" transform="rotate(0,190,150)"/><rect x="186" y="162" width="8" height="8" transform="rotate(0,190,166)"/><rect x="186" y="194" width="8" height="8" transform="rotate(0,190,198)"/><rect x="186" y="202" width="8" height="8" transform="rotate(0,190,206)"/><rect x="186" y="218" width="8" height="8" transform="rotate(0,190,222)"/><rect x="186" y="226" width="8" height="8" transform="rotate(0,190,230)"/><rect x="186" y="234" width="8" height="8" transform="rotate(0,190,238)"/><rect x="186" y="274" width="8" height="8" transform="rotate(0,190,278)"/><rect x="186" y="282" width="8" height="8" transform="rotate(0,190,286)"/><rect x="186" y="290" width="8" height="8" transform="rotate(0,190,294)"/><rect x="194" y="2" width="8" height="8" transform="rotate(0,198,6)"/><rect x="194" y="10" width="8" height="8" transform="rotate(0,198,14)"/><rect x="194" y="18" width="8" height="8" transform="rotate(0,198,22)"/><rect x="194" y="26" width="8" height="8" transform="rotate(0,198,30)"/><rect x="194" y="50" width="8" height="8" transform="rotate(0,198,54)"/><rect x="194" y="66" width="8" height="8" transform="rotate(0,198,70)"/><rect x="194" y="74" width="8" height="8" transform="rotate(0,198,78)"/><rect x="194" y="82" width="8" height="8" transform="rotate(0,198,86)"/><rect x="194" y="114" width="8" height="8" transform="rotate(0,198,118)"/><rect x="194" y="122" width="8" height="8" transform="rotate(0,198,126)"/><rect x="194" y="138" width="8" height="8" transform="rotate(0,198,142)"/><rect x="194" y="154" width="8" height="8" transform="rotate(0,198,158)"/><rect x="194" y="178" width="8" height="8" transform="rotate(0,198,182)"/><rect x="194" y="186" width="8" height="8" transform="rotate(0,198,190)"/><rect x="194" y="194" width="8" height="8" transform="rotate(0,198,198)"/><rect x="194" y="202" width="8" height="8" transform="rotate(0,198,206)"/><rect x="194" y="234" width="8" height="8" transform="rotate(0,198,238)"/><rect x="194" y="242" width="8" height="8" transform="rotate(0,198,246)"/><rect x="194" y="250" width="8" height="8" transform="rotate(0,198,254)"/><rect x="194" y="258" width="8" height="8" transform="rotate(0,198,262)"/><rect x="194" y="266" width="8" height="8" transform="rotate(0,198,270)"/><rect x="194" y="274" width="8" height="8" transform="rotate(0,198,278)"/><rect x="194" y="282" width="8" height="8" transform="rotate(0,198,286)"/><rect x="202" y="18" width="8" height="8" transform="rotate(0,206,22)"/><rect x="202" y="26" width="8" height="8" transform="rotate(0,206,30)"/><rect x="202" y="90" width="8" height="8" transform="rotate(0,206,94)"/><rect x="202" y="98" width="8" height="8" transform="rotate(0,206,102)"/><rect x="202" y="114" width="8" height="8" transform="rotate(0,206,118)"/><rect x="202" y="146" width="8" height="8" transform="rotate(0,206,150)"/><rect x="202" y="154" width="8" height="8" transform="rotate(0,206,158)"/><rect x="202" y="194" width="8" height="8" transform="rotate(0,206,198)"/><rect x="202" y="210" width="8" height="8" transform="rotate(0,206,214)"/><rect x="202" y="226" width="8" height="8" transform="rotate(0,206,230)"/><rect x="202" y="242" width="8" height="8" transform="rotate(0,206,246)"/><rect x="202" y="250" width="8" height="8" transform="rotate(0,206,254)"/><rect x="202" y="258" width="8" height="8" transform="rotate(0,206,262)"/><rect x="202" y="266" width="8" height="8" transform="rotate(0,206,270)"/><rect x="202" y="282" width="8" height="8" transform="rotate(0,206,286)"/><rect x="202" y="290" width="8" height="8" transform="rotate(0,206,294)"/><rect x="210" y="10" width="8" height="8" transform="rotate(0,214,14)"/><rect x="210" y="26" width="8" height="8" transform="rotate(0,214,30)"/><rect x="210" y="34" width="8" height="8" transform="rotate(0,214,38)"/><rect x="210" y="50" width="8" height="8" transform="rotate(0,214,54)"/><rect x="210" y="98" width="8" height="8" transform="rotate(0,214,102)"/><rect x="210" y="114" width="8" height="8" transform="rotate(0,214,118)"/><rect x="210" y="130" width="8" height="8" transform="rotate(0,214,134)"/><rect x="210" y="178" width="8" height="8" transform="rotate(0,214,182)"/><rect x="210" y="194" width="8" height="8" transform="rotate(0,214,198)"/><rect x="210" y="202" width="8" height="8" transform="rotate(0,214,206)"/><rect x="210" y="210" width="8" height="8" transform="rotate(0,214,214)"/><rect x="210" y="226" width="8" height="8" transform="rotate(0,214,230)"/><rect x="210" y="250" width="8" height="8" transform="rotate(0,214,254)"/><rect x="210" y="266" width="8" height="8" transform="rotate(0,214,270)"/><rect x="210" y="274" width="8" height="8" transform="rotate(0,214,278)"/><rect x="210" y="282" width="8" height="8" transform="rotate(0,214,286)"/><rect x="218" y="2" width="8" height="8" transform="rotate(0,222,6)"/><rect x="218" y="26" width="8" height="8" transform="rotate(0,222,30)"/><rect x="218" y="82" width="8" height="8" transform="rotate(0,222,86)"/><rect x="218" y="130" width="8" height="8" transform="rotate(0,222,134)"/><rect x="218" y="146" width="8" height="8" transform="rotate(0,222,150)"/><rect x="218" y="154" width="8" height="8" transform="rotate(0,222,158)"/><rect x="218" y="162" width="8" height="8" transform="rotate(0,222,166)"/><rect x="218" y="170" width="8" height="8" transform="rotate(0,222,174)"/><rect x="218" y="194" width="8" height="8" transform="rotate(0,222,198)"/><rect x="218" y="210" width="8" height="8" transform="rotate(0,222,214)"/><rect x="218" y="218" width="8" height="8" transform="rotate(0,222,222)"/><rect x="218" y="234" width="8" height="8" transform="rotate(0,222,238)"/><rect x="218" y="250" width="8" height="8" transform="rotate(0,222,254)"/><rect x="226" y="34" width="8" height="8" transform="rotate(0,230,38)"/><rect x="226" y="42" width="8" height="8" transform="rotate(0,230,46)"/><rect x="226" y="50" width="8" height="8" transform="rotate(0,230,54)"/><rect x="226" y="58" width="8" height="8" transform="rotate(0,230,62)"/><rect x="226" y="66" width="8" height="8" transform="rotate(0,230,70)"/><rect x="226" y="74" width="8" height="8" transform="rotate(0,230,78)"/><rect x="226" y="82" width="8" height="8" transform="rotate(0,230,86)"/><rect x="226" y="90" width="8" height="8" transform="rotate(0,230,94)"/><rect x="226" y="114" width="8" height="8" transform="rotate(0,230,118)"/><rect x="226" y="122" width="8" height="8" transform="rotate(0,230,126)"/><rect x="226" y="154" width="8" height="8" transform="rotate(0,230,158)"/><rect x="226" y="162" width="8" height="8" transform="rotate(0,230,166)"/><rect x="226" y="170" width="8" height="8" transform="rotate(0,230,174)"/><rect x="226" y="202" width="8" height="8" transform="rotate(0,230,206)"/><rect x="226" y="226" width="8" height="8" transform="rotate(0,230,230)"/><rect x="226" y="234" width="8" height="8" transform="rotate(0,230,238)"/><rect x="226" y="242" width="8" height="8" transform="rotate(0,230,246)"/><rect x="226" y="250" width="8" height="8" transform="rotate(0,230,254)"/><rect x="226" y="258" width="8" height="8" transform="rotate(0,230,262)"/><rect x="226" y="266" width="8" height="8" transform="rotate(0,230,270)"/><rect x="226" y="282" width="8" height="8" transform="rotate(0,230,286)"/><rect x="226" y="290" width="8" height="8" transform="rotate(0,230,294)"/><rect x="234" y="66" width="8" height="8" transform="rotate(0,238,70)"/><rect x="234" y="98" width="8" height="8" transform="rotate(0,238,102)"/><rect x="234" y="114" width="8" height="8" transform="rotate(0,238,118)"/><rect x="234" y="122" width="8" height="8" transform="rotate(0,238,126)"/><rect x="234" y="154" width="8" height="8" transform="rotate(0,238,158)"/><rect x="234" y="162" width="8" height="8" transform="rotate(0,238,166)"/><rect x="234" y="170" width="8" height="8" transform="rotate(0,238,174)"/><rect x="234" y="178" width="8" height="8" transform="rotate(0,238,182)"/><rect x="234" y="186" width="8" height="8" transform="rotate(0,238,190)"/><rect x="234" y="194" width="8" height="8" transform="rotate(0,238,198)"/><rect x="234" y="218" width="8" height="8" transform="rotate(0,238,222)"/><rect x="234" y="226" width="8" height="8" transform="rotate(0,238,230)"/><rect x="234" y="258" width="8" height="8" transform="rotate(0,238,262)"/><rect x="234" y="266" width="8" height="8" transform="rotate(0,238,270)"/><rect x="234" y="274" width="8" height="8" transform="rotate(0,238,278)"/><rect x="234" y="282" width="8" height="8" transform="rotate(0,238,286)"/><rect x="234" y="290" width="8" height="8" transform="rotate(0,238,294)"/><rect x="242" y="74" width="8" height="8" transform="rotate(0,246,78)"/><rect x="242" y="82" width="8" height="8" transform="rotate(0,246,86)"/><rect x="242" y="90" width="8" height="8" transform="rotate(0,246,94)"/><rect x="242" y="106" width="8" height="8" transform="rotate(0,246,110)"/><rect x="242" y="130" width="8" height="8" transform="rotate(0,246,134)"/><rect x="242" y="178" width="8" height="8" transform="rotate(0,246,182)"/><rect x="242" y="194" width="8" height="8" transform="rotate(0,246,198)"/><rect x="242" y="202" width="8" height="8" transform="rotate(0,246,206)"/><rect x="242" y="210" width="8" height="8" transform="rotate(0,246,214)"/><rect x="242" y="218" width="8" height="8" transform="rotate(0,246,222)"/><rect x="242" y="226" width="8" height="8" transform="rotate(0,246,230)"/><rect x="242" y="242" width="8" height="8" transform="rotate(0,246,246)"/><rect x="242" y="258" width="8" height="8" transform="rotate(0,246,262)"/><rect x="242" y="266" width="8" height="8" transform="rotate(0,246,270)"/><rect x="242" y="290" width="8" height="8" transform="rotate(0,246,294)"/><rect x="250" y="66" width="8" height="8" transform="rotate(0,254,70)"/><rect x="250" y="82" width="8" height="8" transform="rotate(0,254,86)"/><rect x="250" y="106" width="8" height="8" transform="rotate(0,254,110)"/><rect x="250" y="122" width="8" height="8" transform="rotate(0,254,126)"/><rect x="250" y="146" width="8" height="8" transform="rotate(0,254,150)"/><rect x="250" y="154" width="8" height="8" transform="rotate(0,254,158)"/><rect x="250" y="162" width="8" height="8" transform="rotate(0,254,166)"/><rect x="250" y="170" width="8" height="8" transform="rotate(0,254,174)"/><rect x="250" y="210" width="8" height="8" transform="rotate(0,254,214)"/><rect x="250" y="218" width="8" height="8" transform="rotate(0,254,222)"/><rect x="250" y="226" width="8" height="8" transform="rotate(0,254,230)"/><rect x="250" y="258" width="8" height="8" transform="rotate(0,254,262)"/><rect x="250" y="266" width="8" height="8" transform="rotate(0,254,270)"/><rect x="250" y="282" width="8" height="8" transform="rotate(0,254,286)"/><rect x="258" y="90" width="8" height="8" transform="rotate(0,262,94)"/><rect x="258" y="122" width="8" height="8" transform="rotate(0,262,126)"/><rect x="258" y="146" width="8" height="8" transform="rotate(0,262,150)"/><rect x="258" y="162" width="8" height="8" transform="rotate(0,262,166)"/><rect x="258" y="186" width="8" height="8" transform="rotate(0,262,190)"/><rect x="258" y="210" width="8" height="8" transform="rotate(0,262,214)"/><rect x="258" y="226" width="8" height="8" transform="rotate(0,262,230)"/><rect x="258" y="234" width="8" height="8" transform="rotate(0,262,238)"/><rect x="258" y="242" width="8" height="8" transform="rotate(0,262,246)"/><rect x="258" y="250" width="8" height="8" transform="rotate(0,262,254)"/><rect x="258" y="258" width="8" height="8" transform="rotate(0,262,262)"/><rect x="258" y="266" width="8" height="8" transform="rotate(0,262,270)"/><rect x="266" y="66" width="8" height="8" transform="rotate(0,270,70)"/><rect x="266" y="74" width="8" height="8" transform="rotate(0,270,78)"/><rect x="266" y="82" width="8" height="8" transform="rotate(0,270,86)"/><rect x="266" y="122" width="8" height="8" transform="rotate(0,270,126)"/><rect x="266" y="130" width="8" height="8" transform="rotate(0,270,134)"/><rect x="266" y="138" width="8" height="8" transform="rotate(0,270,142)"/><rect x="266" y="146" width="8" height="8" transform="rotate(0,270,150)"/><rect x="266" y="186" width="8" height="8" transform="rotate(0,270,190)"/><rect x="266" y="242" width="8" height="8" transform="rotate(0,270,246)"/><rect x="266" y="274" width="8" height="8" transform="rotate(0,270,278)"/><rect x="266" y="282" width="8" height="8" transform="rotate(0,270,286)"/><rect x="274" y="66" width="8" height="8" transform="rotate(0,278,70)"/><rect x="274" y="90" width="8" height="8" transform="rotate(0,278,94)"/><rect x="274" y="98" width="8" height="8" transform="rotate(0,278,102)"/><rect x="274" y="130" width="8" height="8" transform="rotate(0,278,134)"/><rect x="274" y="146" width="8" height="8" transform="rotate(0,278,150)"/><rect x="274" y="170" width="8" height="8" transform="rotate(0,278,174)"/><rect x="274" y="178" width="8" height="8" transform="rotate(0,278,182)"/><rect x="274" y="186" width="8" height="8" transform="rotate(0,278,190)"/><rect x="274" y="210" width="8" height="8" transform="rotate(0,278,214)"/><rect x="274" y="218" width="8" height="8" transform="rotate(0,278,222)"/><rect x="274" y="242" width="8" height="8" transform="rotate(0,278,246)"/><rect x="274" y="250" width="8" height="8" transform="rotate(0,278,254)"/><rect x="274" y="258" width="8" height="8" transform="rotate(0,278,262)"/><rect x="274" y="274" width="8" height="8" transform="rotate(0,278,278)"/><rect x="274" y="282" width="8" height="8" transform="rotate(0,278,286)"/><rect x="282" y="66" width="8" height="8" transform="rotate(0,286,70)"/><rect x="282" y="98" width="8" height="8" transform="rotate(0,286,102)"/><rect x="282" y="106" width="8" height="8" transform="rotate(0,286,110)"/><rect x="282" y="114" width="8" height="8" transform="rotate(0,286,118)"/><rect x="282" y="122" width="8" height="8" transform="rotate(0,286,126)"/><rect x="282" y="130" width="8" height="8" transform="rotate(0,286,134)"/><rect x="282" y="138" width="8" height="8" transform="rotate(0,286,142)"/><rect x="282" y="146" width="8" height="8" transform="rotate(0,286,150)"/><rect x="282" y="154" width="8" height="8" transform="rotate(0,286,158)"/><rect x="282" y="186" width="8" height="8" transform="rotate(0,286,190)"/><rect x="282" y="194" width="8" height="8" transform="rotate(0,286,198)"/><rect x="282" y="202" width="8" height="8" transform="rotate(0,286,206)"/><rect x="282" y="234" width="8" height="8" transform="rotate(0,286,238)"/><rect x="282" y="266" width="8" height="8" transform="rotate(0,286,270)"/><rect x="282" y="274" width="8" height="8" transform="rotate(0,286,278)"/><rect x="290" y="90" width="8" height="8" transform="rotate(0,294,94)"/><rect x="290" y="106" width="8" height="8" transform="rotate(0,294,110)"/><rect x="290" y="114" width="8" height="8" transform="rotate(0,294,118)"/><rect x="290" y="130" width="8" height="8" transform="rotate(0,294,134)"/><rect x="290" y="178" width="8" height="8" transform="rotate(0,294,182)"/><rect x="290" y="186" width="8" height="8" transform="rotate(0,294,190)"/><rect x="290" y="194" width="8" height="8" transform="rotate(0,294,198)"/><rect x="290" y="202" width="8" height="8" transform="rotate(0,294,206)"/><rect x="290" y="242" width="8" height="8" transform="rotate(0,294,246)"/><rect x="290" y="250" width="8" height="8" transform="rotate(0,294,254)"/><rect x="290" y="258" width="8" height="8" transform="rotate(0,294,262)"/><rect x="290" y="266" width="8" height="8" transform="rotate(0,294,270)"/><rect x="290" y="274" width="8" height="8" transform="rotate(0,294,278)"/><rect x="290" y="282" width="8" height="8" transform="rotate(0,294,286)"/><rect x="290" y="290" width="8" height="8" transform="rotate(0,294,294)"/><path clip-rule="evenodd" d="M 2 2v 56h 56v -56zM 10 10h 40v 40h -40z" transform="rotate(0,30,30)"/><rect x="18" y="18" width="8" height="8" transform="rotate(0,22,22)"/><rect x="18" y="26" width="8" height="8" transform="rotate(0,22,30)"/><rect x="18" y="34" width="8" height="8" transform="rotate(0,22,38)"/><rect x="26" y="18" width="8" height="8" transform="rotate(0,30,22)"/><rect x="26" y="26" width="8" height="8" transform="rotate(0,30,30)"/><rect x="26" y="34" width="8" height="8" transform="rotate(0,30,38)"/><rect x="34" y="18" width="8" height="8" transform="rotate(0,38,22)"/><rect x="34" y="26" width="8" height="8" transform="rotate(0,38,30)"/><rect x="34" y="34" width="8" height="8" transform="rotate(0,38,38)"/><path clip-rule="evenodd" d="M 242 2v 56h 56v -56zM 250 10h 40v 40h -40z" transform="rotate(90,270,30)"/><rect x="258" y="18" width="8" height="8" transform="rotate(0,262,22)"/><rect x="258" y="26" width="8" height="8" transform="rotate(0,262,30)"/><rect x="258" y="34" width="8" height="8" transform="rotate(0,262,38)"/><rect x="266" y="18" width="8" height="8" transform="rotate(0,270,22)"/><rect x="266" y="26" width="8" height="8" transform="rotate(0,270,30)"/><rect x="266" y="34" width="8" height="8" transform="rotate(0,270,38)"/><rect x="274" y="18" width="8" height="8" transform="rotate(0,278,22)"/><rect x="274" y="26" width="8" height="8" transform="rotate(0,278,30)"/><rect x="274" y="34" width="8" height="8" transform="rotate(0,278,38)"/><path clip-rule="evenodd" d="M 2 242v 56h 56v -56zM 10 250h 40v 40h -40z" transform="rotate(-90,30,270)"/><rect x="18" y="258" width="8" height="8" transform="rotate(0,22,262)"/><rect x="18" y="266" width="8" height="8" transform="rotate(0,22,270)"/><rect x="18" y="274" width="8" height="8" transform="rotate(0,22,278)"/><rect x="26" y="258" width="8" height="8" transform="rotate(0,30,262)"/><rect x="26" y="266" width="8" height="8" transform="rotate(0,30,270)"/><rect x="26" y="274" width="8" height="8" transform="rotate(0,30,278)"/><rect x="34" y="258" width="8" height="8" transform="rotate(0,38,262)"/><rect x="34" y="266" width="8" height="8" transform="rotate(0,38,270)"/><rect x="34" y="274" width="8" height="8" transform="rotate(0,38,278)"/></clipPath></defs><rect x="0" y="0" height="300" width="300" clip-path="url('#clip-path-background-color')" fill="#fff"/><rect x="0" y="0" height="300" width="300" clip-path="url('#clip-path-dot-color')" fill="#000000"/></svg>